<mxfile host="app.diagrams.net" modified="2024-04-15T16:44:45.984Z" agent="Mozilla/5.0 (X11; Linux x86_64) AppleWebKit/537.36 (KHTML, like Gecko) Chrome/123.0.0.0 Safari/537.36" version="24.2.5" etag="0jQTHRuNgY_gImMOIZ33" type="github">
  <diagram name="PÃ¡gina-1" id="ujfeb6uQEtQ3bcaMo5Ud">
    <mxGraphModel>
      <root>
        <mxCell id="0" />
        <mxCell id="1" parent="0" />
      </root>
    </mxGraphModel>
  </diagram>
</mxfile>
